<svg width="25" height="32" viewBox="0 0 25 32" fill="none" xmlns="http://www.w3.org/2000/svg">
<path fill-rule="evenodd" clip-rule="evenodd" d="M16.0433 14.8939L5.42578 32.0001L22.5743 13.5269L16.0433 14.8939Z" fill="#393939"/>
<path fill-rule="evenodd" clip-rule="evenodd" d="M24.9999 0L17.0234 12.8611L23.2155 11.2782L24.9999 0Z" fill="#393939"/>
<path fill-rule="evenodd" clip-rule="evenodd" d="M2.65883 17.8977L5.42472 32L0 15.9551L2.65883 17.8977Z" fill="#393939"/>
<path fill-rule="evenodd" clip-rule="evenodd" d="M0.661489 8.43604L2.51732 16.3146L0.179688 14.8576L0.661489 8.43604Z" fill="#393939"/>
<path fill-rule="evenodd" clip-rule="evenodd" d="M24.9999 0L17.0234 12.8611L20.7351 9.22761L24.9999 0Z" fill="#868686"/>
<path fill-rule="evenodd" clip-rule="evenodd" d="M16.0433 14.8935L5.42578 31.9997L17.6493 14.5518L16.0433 14.8935Z" fill="#868686"/>
<path fill-rule="evenodd" clip-rule="evenodd" d="M0.661489 8.43604L0.839934 9.19151L0.643644 15.1454L0.179688 14.8576L0.661489 8.43604Z" fill="#868686"/>
<path fill-rule="evenodd" clip-rule="evenodd" d="M0.892224 17.1602L5.42472 32L0 15.9551L0.892224 17.1602Z" fill="#868686"/>
</svg>
