<svg width="108" height="108" viewBox="0 0 108 108" fill="none" xmlns="http://www.w3.org/2000/svg">
<path d="M4.78668 57.5134H23.4118C23.9596 64.6355 25.3291 71.7575 28.0681 78.3317C23.6857 80.2492 19.5772 82.4406 16.0165 85.1798C9.44296 77.236 5.60838 67.9226 4.78668 57.5134ZM14.3731 24.3686C18.2077 27.3817 22.5901 29.847 26.9725 32.0384C24.5074 38.8866 23.4118 46.0086 23.4118 53.4046H4.51278C4.78668 42.9954 8.07347 32.8602 14.3731 24.3686ZM44.7759 5.46775C37.6546 11.768 32.1766 19.4379 28.342 28.2035C24.5074 26.286 20.6728 23.8207 17.1121 21.0815C24.2335 12.8637 34.0939 7.38522 44.7759 5.46775ZM51.8973 4.9199V33.9559C45.0498 33.682 38.4763 32.3124 32.1766 29.847C36.2851 19.9858 43.1325 11.4941 51.8973 4.9199ZM56.0058 76.6882C62.0316 76.9621 68.0574 78.0578 73.8092 79.9753C69.9746 88.4669 63.675 96.1368 56.0058 102.163V76.6882ZM56.0058 57.5134H79.5611C79.2872 64.0876 77.9177 70.114 75.4526 76.1403C69.153 73.9489 62.5794 72.8532 56.0058 72.5793V57.5134ZM56.0058 38.3387C62.8533 38.0648 69.9746 36.6952 76.5482 34.5038C78.7394 40.5301 79.5611 46.8304 79.5611 53.4046H56.0058V38.3387ZM56.0058 5.46775C64.4967 12.0419 71.0702 20.8075 75.1787 30.6688C68.8791 32.8602 62.5794 33.9559 56.0058 33.9559V5.46775ZM91.3388 21.9032C87.5042 24.6425 83.3957 27.1078 79.0133 29.0253C75.4526 19.9858 69.4268 11.768 62.0316 5.19383C73.5353 7.1113 83.6696 12.8637 91.3388 21.9032ZM93.8039 25.1903C99.8296 33.4081 103.116 43.2693 103.116 53.4046H83.9435C83.6696 46.2825 82.574 39.4344 80.3828 32.8602C85.313 30.9427 89.6954 28.2035 93.8039 25.1903ZM92.4344 84.632C88.3259 81.6188 83.9435 79.4274 79.5611 77.5099C81.7523 71.2097 83.3957 64.3615 83.6696 57.5134H102.843C102.295 67.3747 98.4601 76.6882 92.4344 84.632ZM62.0316 102.437C68.8791 96.4107 74.0831 89.2887 77.9177 81.3449C82.0262 82.9884 85.8608 85.1798 89.6954 87.6451C82.3001 95.315 72.7136 100.52 62.0316 102.437ZM51.8973 53.4046H27.5203C27.5203 46.5564 28.6159 39.9823 30.8071 33.682C37.3807 36.4212 44.502 37.7909 51.8973 38.0648V53.4046ZM51.8973 72.8532C45.0498 73.1271 38.2024 74.2228 31.9027 76.6882C29.4376 70.6618 28.0681 64.0876 27.5203 57.5134H51.8973V72.8532ZM51.8973 102.437C43.9542 96.6847 37.6546 89.0148 33.5461 80.5231C39.298 78.3317 45.5976 77.236 51.8973 76.9621V102.437ZM18.7555 88.193C22.0423 85.7277 25.8769 83.8102 29.7115 81.8927C33.2722 89.8365 38.4763 96.4107 44.7759 102.163C34.9156 100.52 25.8769 95.589 18.7555 88.193ZM51.0756 107.094H56.0058C84.7652 105.998 107.225 82.4406 107.225 53.6785C107.225 24.9164 84.7652 1.63281 56.0058 0.537109H51.0756C22.5901 1.90673 0.404297 25.4643 0.404297 53.6785C0.404297 82.1666 22.5901 105.724 51.0756 107.094Z" fill="white"/>
</svg>
