<svg width="135" height="101" viewBox="0 0 135 101" fill="none" xmlns="http://www.w3.org/2000/svg">
<path d="M115.516 4.32707C115.516 4.32707 115.516 4.32707 115.79 4.32707C117.159 4.32707 118.255 5.14885 118.255 6.51847C118.529 7.34024 118.255 7.88809 117.707 8.43594C117.433 8.98379 116.611 9.53164 116.063 9.53164L75.8003 14.4623L73.883 14.7362L71.9657 15.0101V84.587H64.0226V16.1058L62.1053 16.3798L60.188 16.6537L19.9249 21.5843C19.1032 21.5843 18.5554 21.3104 18.0076 21.0365C17.4598 20.4886 16.912 19.9408 16.912 19.119C16.912 18.5712 16.912 17.7494 17.4598 17.2015C17.7337 16.6537 18.5554 16.3798 19.1032 16.3798L60.188 11.1752L62.1053 10.9013L64.0226 10.6273V9.80556C64.0226 9.53164 64.0226 8.98379 64.2965 8.70987C64.5704 7.88809 65.1182 7.06632 65.9399 6.51847C66.4877 6.24454 67.3094 5.97062 67.8572 5.97062C68.405 5.97062 68.6789 5.97062 69.2267 6.24454C70.0484 6.51847 70.8701 7.06632 71.4179 7.88809C71.6918 8.43594 71.9657 8.98379 71.9657 9.80556L73.883 9.53164L75.8003 9.25772L115.516 4.32707ZM122.363 51.716H94.4254L107.025 14.7362L109.764 14.1884L122.363 51.716ZM129.484 56.0988C128.115 60.4816 124.007 63.4948 119.35 63.4948H96.6166C92.2342 63.4948 88.1257 60.4816 86.7562 56.0988H129.484ZM90.3169 88.6959C92.5081 88.6959 94.1515 90.3394 94.1515 92.5308C94.1515 94.7222 92.5081 96.3657 90.3169 96.3657H45.6714C43.4802 96.3657 41.8368 94.7222 41.8368 92.5308C41.8368 90.3394 43.4802 88.6959 45.6714 88.6959H90.3169ZM41.289 62.673H13.6252L26.2246 24.5975L28.4158 24.3236L41.289 62.673ZM48.6843 67.0558C47.0409 71.4386 43.2063 74.4518 38.55 74.4518H15.8164C11.1601 74.4518 7.05163 71.4386 5.68214 67.0558H48.6843ZM67.8572 1.86175C64.5704 1.86175 61.5575 4.05315 60.4619 7.06632L18.5554 12.2709C14.9947 12.8187 12.5296 16.1058 13.0774 19.6669C13.3513 22.9539 16.3642 25.4193 19.3771 25.4193C19.651 25.4193 19.9249 25.4193 20.1988 25.4193L22.1161 25.1453L9.51672 62.3991V62.673H0.751953V65.1383C1.57365 72.8082 8.14723 78.8346 15.8164 78.8346H38.55C46.2192 78.8346 52.7928 72.8082 53.3406 65.1383L53.6145 62.673H45.3975V62.3991L32.5242 24.0496L60.188 20.4886V84.587H45.6714C41.289 84.587 37.7283 88.148 37.7283 92.5308C37.7283 96.9136 41.289 100.475 45.6714 100.475H90.3169C94.6993 100.475 97.9861 96.9136 97.9861 92.5308C97.9861 88.148 94.6993 84.587 90.3169 84.587H75.8003V18.5712L102.642 15.2841L90.3169 51.4421V51.716H81.5522L81.8261 54.1814C82.3739 61.8512 88.9474 67.8776 96.6166 67.8776H119.35C127.293 67.8776 133.867 61.8512 134.415 54.1814V51.716H126.472V51.4421L113.598 13.9144L116.611 13.3666C120.172 13.0927 122.637 9.80556 122.363 6.24454C121.815 2.4096 118.529 -0.0557217 114.968 0.492128L74.4308 5.42277C73.0613 3.5053 70.5962 1.86175 67.8572 1.86175Z" fill="white"/>
</svg>
