<svg width="30" height="27" viewBox="0 0 30 27" fill="none" xmlns="http://www.w3.org/2000/svg">
<path d="M27.1875 13.75H22.5V10C22.5 8.98438 22.8711 8.10547 23.6133 7.36328C24.3555 6.62109 25.2344 6.25 26.25 6.25H26.7188C27.1094 6.25 27.4414 6.11328 27.7148 5.83984C27.9883 5.56641 28.125 5.23438 28.125 4.84375V2.03125C28.125 1.64062 27.9883 1.30859 27.7148 1.03516C27.4414 0.761719 27.1094 0.625 26.7188 0.625H26.25C24.5703 0.625 23.0078 1.05469 21.5625 1.91406C20.1172 2.73438 18.9648 3.86719 18.1055 5.3125C17.2852 6.75781 16.875 8.32031 16.875 10V24.0625C16.875 24.8438 17.1484 25.5078 17.6953 26.0547C18.2422 26.6016 18.9062 26.875 19.6875 26.875H27.1875C27.9688 26.875 28.6328 26.6016 29.1797 26.0547C29.7266 25.5078 30 24.8438 30 24.0625V16.5625C30 15.7812 29.7266 15.1172 29.1797 14.5703C28.6328 14.0234 27.9688 13.75 27.1875 13.75ZM10.3125 13.75H5.625V10C5.625 8.98438 5.99609 8.10547 6.73828 7.36328C7.48047 6.62109 8.35938 6.25 9.375 6.25H9.84375C10.2344 6.25 10.5664 6.11328 10.8398 5.83984C11.1133 5.56641 11.25 5.23438 11.25 4.84375V2.03125C11.25 1.64062 11.1133 1.30859 10.8398 1.03516C10.5664 0.761719 10.2344 0.625 9.84375 0.625H9.375C7.69531 0.625 6.13281 1.05469 4.6875 1.91406C3.24219 2.73438 2.08984 3.86719 1.23047 5.3125C0.410156 6.75781 0 8.32031 0 10V24.0625C0 24.8438 0.273438 25.5078 0.820312 26.0547C1.36719 26.6016 2.03125 26.875 2.8125 26.875H10.3125C11.0938 26.875 11.7578 26.6016 12.3047 26.0547C12.8516 25.5078 13.125 24.8438 13.125 24.0625V16.5625C13.125 15.7812 12.8516 15.1172 12.3047 14.5703C11.7578 14.0234 11.0938 13.75 10.3125 13.75Z" fill="#FF7A00"/>
</svg>
