<svg width="10" height="8" viewBox="0 0 10 8" fill="none" xmlns="http://www.w3.org/2000/svg">
<path d="M9.73047 1.18359L8.40234 7.39453C8.35026 7.61589 8.25911 7.75911 8.12891 7.82422C8.01172 7.8763 7.86198 7.85026 7.67969 7.74609L5.66797 6.26172L4.69141 7.19922C4.6263 7.26432 4.57422 7.3099 4.53516 7.33594C4.47005 7.375 4.38542 7.39453 4.28125 7.39453L4.4375 5.34375L8.16797 1.96484C8.22005 1.92578 8.23307 1.89323 8.20703 1.86719C8.19401 1.82812 8.15495 1.8151 8.08984 1.82812C8.03776 1.82812 7.97917 1.84766 7.91406 1.88672L3.30469 4.79688L1.3125 4.17188C1.09115 4.10677 0.986979 4.00911 1 3.87891C1.01302 3.7487 1.14974 3.63151 1.41016 3.52734L9.16406 0.539062C9.35938 0.473958 9.51562 0.5 9.63281 0.617188C9.75 0.721354 9.78255 0.910156 9.73047 1.18359Z" fill="#5E8BFF"/>
</svg>
