<svg width="14" height="11" viewBox="0 0 14 11" fill="none" xmlns="http://www.w3.org/2000/svg">
<path d="M13.2227 1.45703L11.3633 10.1523C11.2904 10.4622 11.1628 10.6628 10.9805 10.7539C10.8164 10.8268 10.6068 10.7904 10.3516 10.6445L7.53516 8.56641L6.16797 9.87891C6.07682 9.97005 6.00391 10.0339 5.94922 10.0703C5.85807 10.125 5.73958 10.1523 5.59375 10.1523L5.8125 7.28125L11.0352 2.55078C11.1081 2.49609 11.1263 2.45052 11.0898 2.41406C11.0716 2.35938 11.0169 2.34115 10.9258 2.35938C10.8529 2.35938 10.7708 2.38672 10.6797 2.44141L4.22656 6.51562L1.4375 5.64062C1.1276 5.54948 0.981771 5.41276 1 5.23047C1.01823 5.04818 1.20964 4.88411 1.57422 4.73828L12.4297 0.554688C12.7031 0.463542 12.9219 0.5 13.0859 0.664062C13.25 0.809896 13.2956 1.07422 13.2227 1.45703Z" fill="#868686"/>
</svg>
